<?xml version="1.0" encoding="utf-8"?>
<svg xmlns="http://www.w3.org/2000/svg" width="1925.0647" height="333.21213" viewBox="160.42207 0 1925.0647 333.21213">
  <g id="Groupe_7" data-name="Groupe 7" transform="translate(151.639 -765.507)">
    <path id="Tracé_3" data-name="Tracé 3" d="M835.023,705.447c214.251-25.871,164.843,62.83,319.56,62.83s232.407-219.9,675.434-221.752c296.828-1.238,417.266,60.482,495.418,103.9,108.1,60.058,105.7,124.92,264.254,117.852,47.883,2.9,217.6-162.1,353.139-117.852,88.338,28.838,168.162,273.863,168.162,273.863L2856.346,1253.4l-988.2-125.705L821.405,983.561Z" transform="translate(-972 220)" fill="#6edfa3" />
    <path id="Tracé_3_-_Contour" data-name="Tracé 3 - Contour" d="M1838.778,545.507c35.16,0,69.2.909,101.185,2.7,30.115,1.689,59.26,4.211,86.627,7.5,25.564,3.068,50.324,6.891,73.6,11.364,21.5,4.133,42.388,8.947,62.086,14.31A666.466,666.466,0,0,1,2258,615.137c27.143,12.016,49.291,24.064,67.921,34.414a389.657,389.657,0,0,1,44.742,29.041c12.8,9.586,23.749,18.869,34.335,27.845,10.217,8.664,19.867,16.847,29.972,24.229a183.383,183.383,0,0,0,32.708,19.448,180.026,180.026,0,0,0,41.827,12.968,261.228,261.228,0,0,0,26.341,3.507c9.622.809,20.059,1.219,31.021,1.219,7.233,0,14.9-.178,22.777-.529l.052,0,.052,0c.395.024.805.036,1.221.036,7.307,0,17.744-3.6,32.846-11.341,13.813-7.077,29.82-16.69,48.354-27.82,14.974-8.993,31.947-19.185,49.485-28.991,20.082-11.228,38.063-20.36,54.972-27.92,9.864-4.41,19.553-8.361,28.8-11.743,10.012-3.662,19.863-6.789,29.279-9.295a261.706,261.706,0,0,1,29.465-6.117,205.068,205.068,0,0,1,29.353-2.205h.023a169.774,169.774,0,0,1,25.039,1.817,151.617,151.617,0,0,1,24.552,5.775A77.275,77.275,0,0,1,2959.8,657.4a120.463,120.463,0,0,1,16.279,12.321c10.135,9.013,20.6,20.811,31.095,35.064,17.649,23.962,35.737,55.235,53.761,92.951,7.078,14.809,14.163,30.661,21.059,47.114,5.516,13.161,10.925,26.736,16.075,40.345,8.771,23.176,13.818,38.627,13.868,38.78l.164.5-.324.419-254.995,329.569-.567-.072L1868.01,1128.69,820.361,984.427l.045-.915,13.659-278.956.838-.1c13.316-1.608,26.059-2.821,37.873-3.6,11.326-.751,22.161-1.132,32.2-1.132,8.236,0,16.189.256,23.64.761,7.106.482,13.99,1.206,20.461,2.152a194.606,194.606,0,0,1,33.192,7.693,182.628,182.628,0,0,1,25.875,10.879c7.8,3.973,15.09,8.274,22.144,12.433,7.028,4.144,14.3,8.429,22.036,12.374a180.673,180.673,0,0,0,25.593,10.761,192.653,192.653,0,0,0,32.853,7.613c6.42.939,13.252,1.658,20.306,2.136,7.405.5,15.313.756,23.5.756,57.29,0,103.943-30.294,163.009-68.648,24.369-15.824,51.989-33.759,82.947-51.055a755.01,755.01,0,0,1,106.242-49.335c21.016-7.809,42.9-14.818,65.049-20.831,23.972-6.509,49.106-12.086,74.7-16.576,27.38-4.8,56.191-8.521,85.635-11.051,31.228-2.683,64.148-4.115,97.846-4.255C1832.929,545.513,1835.878,545.507,1838.778,545.507Zm728.09,224.3c-11.018,0-21.511-.412-31.188-1.227a263.218,263.218,0,0,1-26.544-3.535,181.983,181.983,0,0,1-42.286-13.113,185.327,185.327,0,0,1-33.059-19.652c-10.164-7.425-19.841-15.631-30.086-24.318-10.563-8.957-21.486-18.22-34.24-27.769A387.63,387.63,0,0,0,2324.95,651.3c-18.591-10.329-40.693-22.351-67.759-34.333a664.518,664.518,0,0,0-95.445-33.657c-19.65-5.35-40.489-10.153-61.938-14.276-23.225-4.464-47.939-8.28-73.456-11.342-27.325-3.28-56.429-5.8-86.5-7.484-31.944-1.792-65.95-2.7-101.073-2.7-2.9,0-5.843.006-8.756.018-33.644.14-66.509,1.57-97.683,4.248-29.385,2.525-58.138,6.235-85.46,11.028-25.537,4.479-50.611,10.043-74.524,16.537-22.089,6-43.916,12.988-64.876,20.776a753.082,753.082,0,0,0-105.963,49.206c-30.9,17.263-58.491,35.179-82.833,50.986-14.8,9.61-28.781,18.689-42.4,26.945a434.194,434.194,0,0,1-40.049,21.905,223.984,223.984,0,0,1-39.859,14.73,173.09,173.09,0,0,1-20.525,4,163.844,163.844,0,0,1-21.269,1.392c-8.236,0-16.189-.256-23.639-.761-7.105-.481-13.99-1.206-20.46-2.152a194.638,194.638,0,0,1-33.191-7.693,182.621,182.621,0,0,1-25.874-10.879c-7.8-3.972-15.09-8.273-22.144-12.433-7.028-4.144-14.3-8.429-22.036-12.374a180.637,180.637,0,0,0-25.594-10.761,192.622,192.622,0,0,0-32.854-7.614c-6.42-.939-13.252-1.658-20.306-2.136-7.406-.5-15.314-.756-23.5-.756-10,0-20.789.379-32.072,1.128-11.531.765-23.951,1.94-36.928,3.494L822.449,982.7l1045.834,144.014L2855.9,1252.341,3109.875,924.1c-.935-2.83-5.8-17.4-13.68-38.21-5.143-13.589-10.543-27.141-16.05-40.281-6.884-16.422-13.956-32.243-21.019-47.022-17.97-37.6-35.991-68.758-53.564-92.616-10.415-14.139-20.781-25.831-30.811-34.751a118.477,118.477,0,0,0-16-12.115,75.3,75.3,0,0,0-16.227-7.726,149.7,149.7,0,0,0-24.228-5.7,167.816,167.816,0,0,0-24.742-1.795h-.023a203.079,203.079,0,0,0-29.066,2.184,259.786,259.786,0,0,0-29.238,6.071c-9.358,2.49-19.151,5.6-29.106,9.241-9.2,3.366-18.848,7.3-28.669,11.691-16.854,7.535-34.783,16.642-54.813,27.84-17.512,9.791-34.47,19.974-49.431,28.96-36.7,22.039-65.686,39.447-82.231,39.447-.437,0-.871-.012-1.289-.037C2581.791,769.629,2574.115,769.807,2566.868,769.807Z" transform="translate(-972 220)" fill="#707070" />
    <path id="Tracé_2" data-name="Tracé 2" d="M870.837,798.306C1125.852,681.886,1131.4,659.711,1284.774,696.67s160.77,35.111,266.1,0,153.378-90.548,319.692-83.157,164.466,64.677,299.365,83.157,104.859,105.18,314.148,0,386.691,85.157,451.369,87,18.006,57.134,18.006,57.134l-469.374,282.733-711.453,20.327L889.317,979.4Z" transform="translate(-952.146 218)" fill="#62be93" />
    <path id="Tracé_2_-_Contour" data-name="Tracé 2 - Contour" d="M1841.271,611.843c9.444,0,19.316.226,29.341.671,11.261.5,22.153,1.253,32.375,2.236,9.749.938,19.213,2.118,28.127,3.506a357.131,357.131,0,0,1,45.953,10.11,329.053,329.053,0,0,1,36.273,13.044c11.011,4.673,21.4,9.679,31.449,14.521,16.079,7.748,32.705,15.759,52.468,22.7a329.282,329.282,0,0,0,32.6,9.588,407.664,407.664,0,0,0,40.214,7.455,258.181,258.181,0,0,1,54.8,13.408c15.033,5.534,27.164,11.626,38.9,17.518,10.772,5.41,20.947,10.52,31.7,14.2a107.151,107.151,0,0,0,35.768,5.991,147.355,147.355,0,0,0,26.6-2.592,255.869,255.869,0,0,0,33.056-8.576c25.492-8.269,55.827-21.306,92.738-39.856a314.51,314.51,0,0,1,33.76-14.59,290.948,290.948,0,0,1,33.132-9.855,281.617,281.617,0,0,1,32.42-5.576A285.182,285.182,0,0,1,2614.571,664c96.209,0,179.953,47.889,241.1,82.857,34.49,19.724,61.733,35.3,79.807,35.82a81.966,81.966,0,0,1,13.231,1.353,42.879,42.879,0,0,1,9.747,3.021c5.142,2.381,8.718,5.755,10.629,10.028,1.814,4.057,2.137,8.943.959,14.523a55.836,55.836,0,0,1-5.509,14.361,98.982,98.982,0,0,1-10.316,15.491l-.106.126-.142.085-469.6,282.869-.263.007-711.56,20.33-.1-.019L888.4,980.249l-.076-.745L869.77,797.694l.652-.3c38.779-17.7,71.532-33.107,100.429-46.7,52.645-24.758,90.682-42.646,122.534-54.29,8.177-2.989,15.671-5.472,22.913-7.592,7.479-2.189,14.5-3.936,21.464-5.339a209.2,209.2,0,0,1,41.82-4.188c7.283,0,14.677.349,22.606,1.067,7.7.7,15.716,1.726,24.514,3.145,15.891,2.564,34.418,6.439,58.306,12.2,38.626,9.308,67.24,15.958,90.5,20.346,24.407,4.6,42.608,6.657,59.015,6.657a184.172,184.172,0,0,0,25.219-1.714,237.931,237.931,0,0,0,25.755-5.1c18.514-4.646,40.084-11.836,65.061-20.162,29.94-9.98,55.388-21.671,80-32.976,14.529-6.675,28.253-12.979,42.863-18.975a434.29,434.29,0,0,1,46.362-16.277,385.594,385.594,0,0,1,54.43-11.373c10.191-1.391,20.844-2.455,31.666-3.161C1817.2,612.218,1829.107,611.843,1841.271,611.843ZM2331.234,748.8c-27.729,0-46.561-9.457-68.365-20.408-11.683-5.867-23.763-11.934-38.69-17.429a256.2,256.2,0,0,0-54.382-13.3,409.644,409.644,0,0,1-40.41-7.492,331.133,331.133,0,0,1-32.793-9.646c-19.867-6.982-36.545-15.018-52.673-22.79-10.027-4.832-20.4-9.828-31.362-14.482a327.1,327.1,0,0,0-36.055-12.966,355.2,355.2,0,0,0-45.7-10.053c-8.876-1.382-18.3-2.557-28.01-3.491-10.187-.98-21.045-1.73-32.272-2.229-10-.444-19.838-.67-29.252-.669-99.482,0-153.106,24.638-209.879,50.719-24.658,11.328-50.156,23.042-80.2,33.056-25.015,8.338-46.619,15.539-65.207,20.2a239.772,239.772,0,0,1-25.971,5.145,186.124,186.124,0,0,1-25.49,1.732c-16.536,0-34.851-2.064-59.385-6.692-23.3-4.4-51.943-11.052-90.6-20.367-23.837-5.744-42.317-9.609-58.156-12.165-8.751-1.412-16.724-2.435-24.375-3.128-7.868-.713-15.2-1.059-22.426-1.059a207.226,207.226,0,0,0-41.425,4.148c-6.907,1.392-13.873,3.125-21.3,5.3-7.2,2.107-14.654,4.577-22.788,7.551C1062.3,709.9,1024.3,727.773,971.7,752.51c-28.74,13.516-61.293,28.825-99.8,46.408l18.33,179.639,882.471,164.309,711.083-20.316,469-282.511a97.4,97.4,0,0,0,9.991-15.046,53.789,53.789,0,0,0,5.306-13.824c1.084-5.151.8-9.618-.833-13.278-3.7-8.273-14.413-12.72-31.837-13.218-18.574-.531-46.009-16.22-80.743-36.083C2793.726,713.735,2710.249,666,2614.571,666a283.215,283.215,0,0,0-31.4,1.744,279.7,279.7,0,0,0-32.19,5.536,288.867,288.867,0,0,0-32.9,9.787,312.594,312.594,0,0,0-33.544,14.5c-37,18.6-67.429,31.671-93.019,39.971a257.738,257.738,0,0,1-33.314,8.641A149.329,149.329,0,0,1,2331.234,748.8Z" transform="translate(-952.146 218)" fill="#707070" />
  </g>
</svg>